<svg xmlns="http://www.w3.org/2000/svg" viewBox="0 0 64 64" fill="currentColor" aria-hidden="true"><path fill-rule="evenodd" d="M2.6 3.4 L22 2 L44 3.8 L61.4 2.6 L62 22 L60.2 42 L61.6 61 L40 62 L19 60.4 L2 61.4 L3 40.5 L2 21 Z M8.6 9.2 L8 55 L20.8 55.6 L32 54.6 L44.5 55.8 L55.4 55 L55 42 L56 28 L55.2 9 L42 8.4 L30.5 9.4 L19 8.2 Z"/><path d="M13 45 L13 21 L18 21 L23 31 L28 21 L33 21 L33 45 L28.4 45 L28.4 28 L24.7 35.5 L21.3 35.5 L17.6 28 L17.6 45 Z"/><path fill-rule="evenodd" d="M37 45 L37 21 L49 21 L51.6 23.6 L51.6 31 L49 33.6 L46.4 33.6 L52 45 L46.8 45 L41.9 34 L41.6 34 L41.6 45 Z M41.6 25.2 L46.2 25.2 L47 26 L47 28.8 L46.2 29.6 L41.6 29.6 Z"/></svg>
