<svg xmlns="http://www.w3.org/2000/svg" viewBox="0 0 64 64" fill="currentColor" aria-hidden="true"><path fill-rule="evenodd" d="M3.4 4.2 L20 2.8 L41 4.6 L60.6 2.4 L61.4 20 L59.6 33 L61.8 47 L60.6 61.2 L41.5 60.2 L22 61.8 L3.6 60.6 L2.4 46 L4 30 L2.6 18 Z M14 46 L14 18 L20 18 L26 30 L32 18 L38 18 L38 46 L32.5 46 L32.5 26 L28 35 L24 35 L19.5 26 L19.5 46 Z M42 46 L42 18 L56 18 L59.6 21.6 L59.6 30.4 L56 34 L53.6 34 L61.8 47 L60.6 61.2 L52.4 47.8 L47.5 34 L47.5 46 Z M47.5 23 L53.5 23 L55 24.5 L55 27.5 L53.5 29 L47.5 29 Z M35 1.6 L39.5 2 L37.3 7.2 Z"/></svg>
