<svg xmlns="http://www.w3.org/2000/svg" viewBox="-36 -834 1001 1001"><style>path{fill:#1E1C19}@media(prefers-color-scheme:dark){path{fill:#E6E2D9}}</style><path d="M33 0V-56L144 -63H175L284 -56V0ZM40 -612V-667H168V-604H154ZM129 0V-667H176L192 -352V0ZM404 0 172 -596H147V-667H260L472 -119H460L506 -246L664 -667H722V-596H693L648 -465L471 0ZM592 0V-56L712 -63H771L897 -56V0ZM683 0Q684 -55 684 -109Q685 -164 685 -218Q685 -272 685 -326L685 -667H803Q803 -616 802 -565Q802 -514 802 -462Q802 -411 802 -359V-309Q802 -258 802 -206Q802 -155 802 -103Q803 -52 803 0ZM756 -604V-667H896V-612L771 -604Z"/></svg>
